<svg width="729" height="44" fill="none" xmlns="http://www.w3.org/2000/svg"><path d="M8.759.56H.19v42.448h28.168v-8.512h-19.6V.56zm53.92 0H32.607v42.448H62.68v-8.456H41.007v-9.128h19.824v-8.456H41.007V8.96H62.68V.56zm30.495 0h-9.465L66.014 43.008h8.96l4.257-10.36h18.423l4.257 10.36h8.96L93.173.56zm-9.857 22.568l5.153-12.376 5.096 12.376H83.317zm50.263-1.568h-10.64V9.408h10.64a5.999 5.999 0 0 1 5.992 5.992c0 3.36-2.688 6.16-5.992 6.16zm-18.816 21.448h8.176V30.24h7.28l9.352 12.768h10.472l-10.472-14.28c4.312-2.8 7.896-6.216 8.456-13.664 0-8.624-5.88-14.504-13.16-14.504h-20.104v42.448zM197.673.56h-8.568v31.528L166.817.56h-11.424v42.448h8.624V11.424l21.728 31.584h11.928V.56zm6.997 0v42.448h8.512V.56h-8.512zm57.807 0h-8.568v31.528L231.621.56h-11.424v42.448h8.624V11.424l21.728 31.584h11.928V.56zm47.904 18.312h-19.824v8.232h10.416c-1.848 6.104-8.736 7.784-11.536 7.784a13.037 13.037 0 0 1-13.048-13.104c0-7.336 5.936-13.048 13.048-13.048 7.448 0 10.864 5.88 10.864 5.88l7.504-4.256S302.933.168 289.493.168c-12.6 0-21.504 9.576-21.504 21.616 0 12.096 8.904 21.672 21.504 21.672 10.808 0 19.544-7.448 20.832-18.424 0 0 .28-4.704.056-6.16zM482.809.56h20.216c6.44 0 11.648 5.04 11.648 11.536 0 3.64-1.68 6.552-4.312 8.68 3.192 2.072 5.264 5.936 5.264 10.416 0 6.552-5.208 11.816-11.648 11.816h-21.168V.56zm8.624 33.264h10.976c2.24 0 4.032-1.736 4.032-4.032 0-2.352-1.792-4.256-4.032-4.256h-10.976v8.288zm0-16.8h10.528c2.24-.056 3.92-1.624 3.92-3.864 0-2.296-1.848-3.976-4.088-3.976h-10.36v7.84zM550.492.56H520.42v42.448h30.072v-8.456H528.82v-9.128h19.824v-8.456H528.82V8.96h21.672V.56zm45.446 0h-10.08l-11.032 16.8-10.92-16.8h-10.08l16.856 25.872v16.576h8.344V26.432L595.938.56zm19.985 34.384c-6.944 0-13.048-5.824-13.048-13.16 0-7.28 6.104-13.104 13.048-13.104 6.888 0 13.048 5.824 13.048 13.104 0 7.336-6.16 13.16-13.048 13.16zm-21.504-13.16c0 11.928 9.856 21.672 21.504 21.672 11.648 0 21.504-9.744 21.504-21.672 0-11.872-9.856-21.672-21.504-21.672-11.648 0-21.504 9.8-21.504 21.672zM685.212.56h-8.568v31.528L654.356.56h-11.424v42.448h8.624V11.424l21.728 31.584h11.928V.56zm21.656 33.88h-5.544V9.128h5.544c6.944 0 12.712 5.656 12.712 12.656 0 7-5.768 12.656-12.712 12.656zm-14.112 8.568h14.28c11.648 0 21.168-9.52 21.168-21.224S718.684.56 707.036.56h-14.28v42.448z" fill="#00BABB"/><path d="M356.603.56h-9.464l-17.696 42.448h8.96l4.256-10.36h18.424l4.256 10.36h8.96L356.603.56zm-9.856 22.568l5.152-12.376 5.096 12.376h-10.248zM420.305.56h-8.568v31.528L389.449.56h-11.424v42.448h8.624V11.424l21.728 31.584h11.928V.56zm21.657 33.88h-5.544V9.128h5.544c6.944 0 12.712 5.656 12.712 12.656 0 7-5.768 12.656-12.712 12.656zm-14.112 8.568h14.28c11.648 0 21.168-9.52 21.168-21.224S453.778.56 442.13.56h-14.28v42.448z" fill="#052460"/></svg>